<svg width="32" height="32" viewBox="0 0 32 32" xmlns="http://www.w3.org/2000/svg">
  <defs>
    <style>
      .globe { fill: #00ff41; }
      .grid { fill: none; stroke: #00ff41; stroke-width: 0.8; }
      .bg { fill: #000; }
    </style>
  </defs>
  
  <!-- Background -->
  <rect width="32" height="32" class="bg"/>
  
  <!-- Globe outline -->
  <circle cx="16" cy="16" r="14" class="globe" fill-opacity="0.1" stroke="#00ff41" stroke-width="1"/>
  
  <!-- Grid lines -->
  <g class="grid">
    <!-- Horizontal lines -->
    <ellipse cx="16" cy="16" rx="14" ry="7"/>
    <ellipse cx="16" cy="16" rx="14" ry="3.5"/>
    <line x1="2" y1="16" x2="30" y2="16"/>
    
    <!-- Vertical lines -->
    <ellipse cx="16" cy="16" rx="7" ry="14"/>
    <ellipse cx="16" cy="16" rx="3.5" ry="14"/>
    <line x1="16" y1="2" x2="16" y2="30"/>
  </g>
  
  <!-- Pixelated continents -->
  <g class="globe">
    <!-- North America -->
    <rect x="6" y="8" width="2" height="2"/>
    <rect x="8" y="9" width="2" height="3"/>
    <rect x="10" y="10" width="1" height="2"/>
    
    <!-- Europe/Africa -->
    <rect x="14" y="10" width="2" height="1"/>
    <rect x="15" y="11" width="2" height="2"/>
    <rect x="16" y="13" width="1" height="3"/>
    
    <!-- Asia -->
    <rect x="19" y="9" width="3" height="1"/>
    <rect x="20" y="10" width="2" height="2"/>
    <rect x="22" y="11" width="2" height="1"/>
    
    <!-- Australia -->
    <rect x="21" y="18" width="2" height="1"/>
  </g>
</svg>