<?xml version="1.0" encoding="UTF-8" standalone="no"?>
<!DOCTYPE svg PUBLIC "-//W3C//DTD SVG 1.1//EN" "http://www.w3.org/Graphics/SVG/1.1/DTD/svg11.dtd">
<svg width="100%" height="100%" viewBox="0 0 800 800" version="1.1" xmlns="http://www.w3.org/2000/svg" xmlns:xlink="http://www.w3.org/1999/xlink" xml:space="preserve" xmlns:serif="http://www.serif.com/" style="fill-rule:evenodd;clip-rule:evenodd;stroke-linejoin:round;stroke-miterlimit:2;">
    <g transform="matrix(1.75632,0,0,1.79904,-23.1153,-13.904)">
        <rect x="3.012" y="2.322" width="469.296" height="452.922" style="fill:white;"/>
    </g>
    <g transform="matrix(3.22613,0,0,2.14022,-105.931,-91.1156)">
        <rect x="86.839" y="89.764" width="65.342" height="65.342"/>
    </g>
    <g transform="matrix(2.12756,0,0,2.08225,302.752,-82.9224)">
        <rect x="86.839" y="89.764" width="65.342" height="65.342"/>
    </g>
    <g transform="matrix(3.22613,0,0,2.1067,-105.931,372.037)">
        <rect x="86.839" y="89.764" width="65.342" height="65.342"/>
    </g>
    <g transform="matrix(1.56971,0,0,2.63586,-72.5292,-734.956)">
        <rect x="130.014" y="497.223" width="27.62" height="27.62"/>
    </g>
    <g transform="matrix(1.56971,0,0,2.63586,240.657,-1156.91)">
        <rect x="130.014" y="497.223" width="27.62" height="27.62"/>
    </g>
    <g transform="matrix(1.56971,0,0,2.63586,421.753,-1156.91)">
        <rect x="130.014" y="497.223" width="27.62" height="27.62"/>
    </g>
    <g transform="matrix(1.56971,0,0,2.63586,-73.1509,-1159.72)">
        <rect x="130.014" y="497.223" width="27.62" height="27.62"/>
    </g>
    <g transform="matrix(2.2162,0,0,0.921522,294.918,417.958)">
        <rect x="86.839" y="89.764" width="65.342" height="65.342"/>
    </g>
    <g transform="matrix(2.35795e-16,-7.25704,1.29761,1.25962e-16,298.544,1330.56)">
        <rect x="86.839" y="89.764" width="65.342" height="65.342"/>
    </g>
    <g transform="matrix(1.51661e-16,-5.40298,1.49726,1.38187e-16,-33.1777,1045.45)">
        <rect x="86.839" y="89.764" width="65.342" height="65.342"/>
    </g>
    <g transform="matrix(2.45716e-16,-7.29187,1.24319,1.22629e-16,505.88,1332.9)">
        <rect x="86.839" y="89.764" width="65.342" height="65.342"/>
    </g>
</svg>
